<svg xmlns="http://www.w3.org/2000/svg" fill="#333" viewBox="0 0 24 24" width="28" height="28">
  <path d="M12 .5C5.73.5.5 5.73.5 12c0 5.08 3.29 9.38 7.85 10.9.57.1.78-.25.78-.55v-2c-3.19.7-3.86-1.5-3.86-1.5-.52-1.3-1.28-1.65-1.28-1.65-1.05-.7.08-.7.08-.7 1.16.08 1.77 1.2 1.77 1.2 1.03 1.76 2.7 1.25 3.36.96.1-.75.4-1.26.72-1.55-2.55-.3-5.23-1.28-5.23-5.7 0-1.26.45-2.3 1.2-3.1-.12-.3-.52-1.56.12-3.25 0 0 1-.3 3.3 1.2.95-.25 1.95-.37 2.95-.37 1 0 2 .12 2.95.37 2.3-1.5 3.3-1.2 3.3-1.2.64 1.7.24 2.95.12 3.25.75.8 1.2 1.84 1.2 3.1 0 4.45-2.7 5.38-5.28 5.68.42.37.8 1.1.8 2.25v3.33c0 .3.2.65.8.55A10.51 10.51 0 0023.5 12c0-6.27-5.23-11.5-11.5-11.5z"></path>
</svg>
